<?xml version="1.0" encoding="UTF-8"?>
<svg width="19px" height="19px" viewBox="0 0 19 19" version="1.1" xmlns="http://www.w3.org/2000/svg" xmlns:xlink="http://www.w3.org/1999/xlink">
    <!-- Generator: Sketch 44.1 (41455) - http://www.bohemiancoding.com/sketch -->
    <title>analysis-chart</title>
    <desc>Created with Sketch.</desc>
    <defs></defs>
    <g id="Page-1" stroke="none" stroke-width="1" fill="none" fill-rule="evenodd" opacity="0.920572917">
        <g id="Dashboard-dividends" transform="translate(-1119.000000, -111.000000)" fill-rule="nonzero" fill="#5C6278">
            <g id="analysis-chart" transform="translate(1119.000000, 111.000000)">
                <path d="M18.3371184,15.8412433 L15.9781915,13.8717701 C15.8610315,13.7744976 15.697086,13.7528377 15.5602683,13.8174235 C15.4214847,13.8820093 15.3338113,14.021814 15.3338113,14.1738269 L15.3338113,15.3552745 L3.1460222,15.3552745 L3.1460222,3.1469826 L4.32469935,3.1469826 C4.32745143,3.14619497 4.33059667,3.14619497 4.33256244,3.1469826 C4.55037003,3.1469826 4.72611008,2.97094691 4.72611008,2.75316673 C4.72611008,2.63226526 4.67185476,2.5239659 4.58654024,2.45150378 L2.66126272,0.13822937 C2.51147086,-0.0409568503 2.20677613,-0.0409568503 2.05698427,0.13822937 L0.0912118409,2.50112458 C-0.00668362627,2.61848171 -0.0275208141,2.78191529 0.0373496762,2.92014466 C0.101827012,3.05876785 0.2410037,3.1469826 0.392761332,3.1469826 L1.57261795,3.1469826 L1.57261795,16.1429062 C1.57261795,16.577679 1.92449121,16.930538 2.35892692,16.930538 L15.333025,16.930538 L15.333025,18.1119856 C15.333025,18.26518 15.4214847,18.4038031 15.559482,18.4683889 C15.612951,18.4928055 15.6691721,18.5058015 15.7265726,18.5058015 C15.816605,18.5058015 15.9058511,18.47469 15.9781915,18.4152238 L18.3371184,16.4457506 C18.4271508,16.3709256 18.4782609,16.2598696 18.4782609,16.1429062 C18.4782609,16.0263367 18.4267576,15.9156745 18.3371184,15.8412433 Z" id="Shape"></path>
                <path d="M4.3243062,12.2051414 C4.3243062,12.8573005 4.85270583,13.3861952 5.50416281,13.3861952 L13.3672525,13.3861952 C14.0187095,13.3861952 14.546716,12.8573005 14.546716,12.2051414 C14.546716,11.5521947 14.0187095,11.0233 13.3672525,11.0233 L5.50416281,11.0233 C4.85270583,11.0233 4.3243062,11.5521947 4.3243062,12.2051414 Z" id="Shape"></path>
                <path d="M5.50416281,10.2356682 L9.43570768,10.2356682 C10.0875578,10.2356682 10.6151711,9.70677351 10.6151711,9.05422062 C10.6151711,8.40166773 10.0871647,7.87277302 9.43570768,7.87277302 L5.50416281,7.87277302 C4.85270583,7.87277302 4.3243062,8.40166773 4.3243062,9.05422062 C4.3243062,9.70677351 4.85270583,10.2356682 5.50416281,10.2356682 Z" id="Shape"></path>
                <path d="M4.3243062,5.90369368 C4.3243062,6.55624657 4.85270583,7.08514128 5.50416281,7.08514128 L11.4014801,7.08514128 C12.0529371,7.08514128 12.5809436,6.55624657 12.5809436,5.90369368 C12.5809436,5.25074697 12.0529371,4.72224607 11.4014801,4.72224607 L5.50416281,4.72224607 C4.85270583,4.72224607 4.3243062,5.25074697 4.3243062,5.90369368 Z" id="Shape"></path>
            </g>
        </g>
    </g>
</svg>