<?xml version="1.0" encoding="UTF-8"?>
<svg width="21px" height="19px" viewBox="0 0 21 19" version="1.1" xmlns="http://www.w3.org/2000/svg" xmlns:xlink="http://www.w3.org/1999/xlink">
    <!-- Generator: Sketch 44.1 (41455) - http://www.bohemiancoding.com/sketch -->
    <title>investments-balance</title>
    <desc>Created with Sketch.</desc>
    <defs></defs>
    <g id="Page-1" stroke="none" stroke-width="1" fill="none" fill-rule="evenodd" opacity="0.920572917">
        <g id="Dashboard-dividends" transform="translate(-931.000000, -111.000000)" fill-rule="nonzero" fill="#5C6278">
            <g id="investments-balance" transform="translate(931.000000, 111.000000)">
                <path d="M20.5722929,7.40628458 C20.5758973,7.3290154 20.5617719,7.2507669 20.5284557,7.17829644 L17.3975082,0.366759259 C17.3963392,0.364213 17.3946831,0.362058473 17.3935142,0.359512214 C17.3901046,0.352363101 17.3859157,0.34589952 17.3822139,0.338946274 C17.3719852,0.320045196 17.3608798,0.302025516 17.348508,0.284985165 C17.3430527,0.277444321 17.3375974,0.270001409 17.3317525,0.262754364 C17.316653,0.244245018 17.300482,0.226910869 17.2830445,0.210947782 C17.2798298,0.208009791 17.2771021,0.204680067 17.2738874,0.201840009 C17.2530404,0.183722395 17.2304399,0.167955175 17.2068653,0.15365695 C17.1999487,0.149445829 17.19274,0.145920239 17.1856286,0.142002917 C17.1673144,0.132013747 17.1484157,0.123395639 17.1288351,0.115854794 C17.1211393,0.112916803 17.1136382,0.109782945 17.105845,0.107236686 C17.0794452,0.0986185779 17.0525584,0.0915673985 17.0246975,0.0875521436 C17.021775,0.0871604114 17.0187551,0.0872583445 17.0158326,0.0868666123 C16.9958624,0.0843203531 16.9757947,0.0824596252 16.9553374,0.0824596252 C16.9496872,0.0824596252 16.944232,0.0834389556 16.9385818,0.0836348217 C16.9302041,0.0839286209 16.9218263,0.0847120852 16.9133511,0.0854955496 C16.8893868,0.0875521436 16.8659096,0.0913715324 16.8429194,0.096855783 C16.8385357,0.0978351135 16.8342494,0.0978351135 16.8299631,0.098912377 L11.2601107,1.59023681 L11.2601107,1.07716558 C11.2601107,0.537554492 10.8234926,0.0986185779 10.2867309,0.0986185779 C9.74996924,0.0986185779 9.31335111,0.537554492 9.31335111,1.07716558 L9.31335111,2.11153442 L3.49275021,3.66994299 C3.49099672,3.67043265 3.4896329,3.67131405 3.48787941,3.67180371 C3.46001846,3.67963836 3.43303425,3.68992133 3.40721903,3.70235882 C3.40010767,3.70578648 3.39367822,3.70980174 3.38685911,3.71352319 C3.36815525,3.72370823 3.35013331,3.73506846 3.33289069,3.74770182 C3.32577933,3.75289228 3.31866797,3.75788686 3.31184885,3.76337111 C3.29041735,3.78080319 3.26996001,3.79960634 3.25164582,3.82066194 C3.25037941,3.82203301 3.24950267,3.82369787 3.24823626,3.82516686 C3.23128589,3.84504727 3.21628384,3.86669048 3.2025482,3.88941094 C3.19816448,3.89675592 3.19436526,3.90419883 3.19027379,3.91173968 C3.18559783,3.92045572 3.18014253,3.92868209 3.17595365,3.93778987 L0.0449087367,10.7493271 C0.0129563167,10.8189574 -0.000974159147,10.8937783 0.00107157506,10.9681095 C0.000487079573,10.9835829 0,10.9989584 0,11.0144318 C0,12.9384244 1.62304655,14.5037863 3.61802707,14.5037863 C5.61300759,14.5037863 7.23605414,12.9385224 7.23605414,11.0144318 C7.23605414,11.0019943 7.23566448,10.9896547 7.23527482,10.9773152 C7.2388792,10.8999481 7.2247539,10.8216996 7.19143765,10.7492291 L4.30334803,4.46643245 L9.31335111,3.12504351 L9.31335111,13.7121934 C9.31335111,15.3199603 8.01226415,16.627954 6.41298708,16.627954 C5.68831009,16.627954 5.09865156,17.2206448 5.09865156,17.9557303 C5.09865156,18.2261234 5.31666838,18.4453955 5.58573113,18.4453955 L14.9879256,18.4453955 C15.2569883,18.4453955 15.4750051,18.2196598 15.4750051,17.9492667 C15.4750051,17.2207428 14.8853466,16.627954 14.1606696,16.627954 C12.5613925,16.627954 11.2603056,15.3199603 11.2603056,13.7121934 L11.2603056,2.60374591 L16.0780096,1.31386975 L13.3820242,7.17819851 C13.3500718,7.24782891 13.3361413,7.32274769 13.338187,7.39707887 C13.3377,7.41255229 13.3372129,7.42792778 13.3372129,7.4434012 C13.3372129,9.36739383 14.9602594,10.9327556 16.95524,10.9327556 C18.9502205,10.9327556 20.573267,9.36739383 20.573267,7.4434012 C20.5730722,7.4309637 20.5726825,7.41862414 20.5722929,7.40628458 Z M1.24867719,10.4650274 L3.61802707,5.31041945 L5.98747436,10.4650274 L1.24867719,10.4650274 Z M16.9553374,1.73938884 L19.3246872,6.89399681 L14.5857927,6.89399681 L16.9553374,1.73938884 Z" id="Shape"></path>
            </g>
        </g>
    </g>
</svg>