<?xml version="1.0" encoding="UTF-8"?>
<svg width="19px" height="19px" viewBox="0 0 21 21" version="1.1" xmlns="http://www.w3.org/2000/svg" xmlns:xlink="http://www.w3.org/1999/xlink">
    <!-- Generator: Sketch 44.1 (41455) - http://www.bohemiancoding.com/sketch -->
    <title>Group 9</title>
    <desc>Created with Sketch.</desc>
    <defs></defs>
    <g id="Page-1" stroke="none" stroke-width="1" fill="none" fill-rule="evenodd">
        <g id="Dashboard-Addproject" transform="translate(-1177.000000, -575.000000)" fill-rule="nonzero" fill="#4E546C">
            <g id="Group-9" transform="translate(1177.000000, 575.000000)">
                <g id="attachment">
                    <path d="M10.4997327,0.477272727 C4.96458136,0.477272727 0.477339545,4.96484864 0.477339545,10.4997995 C0.477339545,16.0347505 4.96458136,20.5227273 10.4997327,20.5227273 C16.0348841,20.5227273 20.5226605,16.0350177 20.5226605,10.4997995 C20.5226605,4.96458136 16.0348841,0.477272727 10.4997327,0.477272727 Z M15.3108423,9.40404818 L8.72464091,15.9897818 L8.724975,15.9901159 C8.72270318,15.9923877 8.72049818,15.9939245 8.71822636,15.9961964 L8.67786818,16.0365545 L8.67579682,16.0342827 C8.30422091,16.3803341 7.82279591,16.5529923 7.32439909,16.5529923 C6.72998455,16.5529923 6.11338636,16.3105759 5.63630455,15.8334273 C5.21207591,15.4095327 4.95769909,14.8618909 4.92008045,14.2913973 C4.88279591,13.7271177 5.06146773,13.2065373 5.42021455,12.8124436 L5.41660636,12.8088355 L11.9253655,6.30007636 C12.4750786,5.75022955 13.4093305,5.79072136 14.0085559,6.38981318 C14.2894595,6.67071682 14.4584427,7.03500955 14.4835664,7.415205 C14.5102268,7.81584682 14.3695077,8.20132091 14.0976245,8.47287 L8.79921,13.7718191 L8.06387591,13.0366855 L13.3626245,7.73753591 C13.4402673,7.65989318 13.4508245,7.55692636 13.4460136,7.48449545 C13.4375277,7.35767455 13.3744514,7.22664409 13.2730882,7.12521409 C13.0826564,6.93478227 12.8020868,6.89388955 12.6604991,7.03561091 L6.21555136,13.480425 L6.21575182,13.4806255 C6.02979682,13.66638 5.93812227,13.9299777 5.95756636,14.2228418 C5.97868091,14.5415645 6.12568091,14.8524695 6.37157182,15.0983605 C6.85974545,15.5864005 7.58365364,15.6572277 7.98723545,15.2571205 L14.5760427,8.66884773 C14.8829386,8.36175136 15.0347495,7.93010591 15.0032114,7.45369227 C14.9699359,6.95128636 14.7398141,6.46311273 14.3556095,6.07890818 C13.5805855,5.30408455 12.4190182,5.20512682 11.76567,5.85814091 L6.31470955,11.3089009 L5.57937545,10.5737673 L11.0303359,5.12280682 C12.0888695,4.06447364 13.9104,4.16323091 15.0907432,5.34344045 C15.6534191,5.90578227 15.9906505,6.63069273 16.0407641,7.38473591 C16.0922809,8.16463773 15.83316,8.88173045 15.3108423,9.40404818 Z" id="Shape"></path>
                </g>
            </g>
        </g>
    </g>
</svg>
