<?xml version="1.0" encoding="UTF-8"?>
<svg width="99px" height="95px" viewBox="0 0 99 95" version="1.1" xmlns="http://www.w3.org/2000/svg" xmlns:xlink="http://www.w3.org/1999/xlink">
    <!-- Generator: Sketch 44.1 (41455) - http://www.bohemiancoding.com/sketch -->
    <title>check</title>
    <desc>Created with Sketch.</desc>
    <defs></defs>
    <g id="Page-1" stroke="none" stroke-width="1" fill="none" fill-rule="evenodd">
        <g id="Email-sent" transform="translate(-633.000000, -317.000000)" fill-rule="nonzero" fill="#5AB976">
            <g id="check" transform="translate(633.000000, 317.000000)">
                <path d="M90.6675645,39.4742449 C88.4588203,39.4742449 86.6685059,41.269551 86.6685059,43.4840204 L86.6685059,47.5226837 C86.6625117,58.057602 82.5652266,67.9597041 75.1315254,75.404602 C67.7032383,82.8440714 57.8322422,86.9403163 47.3339883,86.9403163 C47.3262539,86.9403163 47.3185195,86.9403163 47.3107852,86.9403163 C25.6212773,86.9279082 7.98574219,69.2251429 7.99811719,47.4773163 C8.00411133,36.9425918 12.1013965,27.0404898 19.535291,19.5952041 C26.9635781,12.1557347 36.8347676,8.0594898 47.3328281,8.0594898 C47.3405625,8.0594898 47.3482969,8.0594898 47.3560313,8.0594898 C52.9000313,8.06259184 58.2789023,9.2115102 63.3429844,11.4738673 C65.3608828,12.375398 67.7243145,11.4659184 68.6234355,9.44319388 C69.5221699,7.42046939 68.6157012,5.05012245 66.5981895,4.14859184 C60.5042754,1.42596939 54.031957,0.043622449 47.3604785,0.0399387755 C47.3504238,0.0399387755 47.3426895,0.0399387755 47.3326348,0.0399387755 C34.7006602,0.0399387755 22.8210469,4.96985714 13.8828164,13.9215714 C4.937625,22.8802653 0.00734765625,34.7957857 -2.78658593e-16,47.473051 C-0.00715429688,60.1499286 4.90920117,72.0710714 13.8443379,81.0402347 C22.7794746,90.009398 34.6629551,94.9528878 47.3061445,94.9602551 C47.3160059,94.9602551 47.3239336,94.9602551 47.3339883,94.9602551 C59.9659629,94.9602551 71.8455762,90.0305306 80.7838066,81.0786224 C89.728998,72.1197347 94.6592754,60.2042143 94.666623,47.5250102 L94.666623,43.4842143 C94.666623,41.269551 92.8763086,39.4742449 90.6675645,39.4742449 Z" id="Shape"></path>
                <path d="M97.8286289,5.5842551 C96.2668652,4.0185 93.7348242,4.0185 92.1730605,5.5842551 L47.3332148,50.5440714 L37.1607715,40.3443673 C35.5992012,38.7784184 33.0669668,38.7784184 31.5053965,40.3443673 C29.9436328,41.9103163 29.9436328,44.4491429 31.5053965,46.0150918 L44.5057207,59.0502551 C45.2865059,59.8333265 46.3101504,60.2247653 47.3336016,60.2247653 C48.3570527,60.2247653 49.3805039,59.8333265 50.1614824,59.0502551 L97.8286289,11.2549796 C99.3903926,9.68903061 99.3903926,7.15020408 97.8286289,5.5842551 Z" id="Shape"></path>
            </g>
        </g>
    </g>
</svg>