<?xml version="1.0" encoding="UTF-8"?>
<svg width="19px" height="21px" viewBox="0 0 19 21" version="1.1" xmlns="http://www.w3.org/2000/svg" xmlns:xlink="http://www.w3.org/1999/xlink">
    <!-- Generator: Sketch 44.1 (41455) - http://www.bohemiancoding.com/sketch -->
    <title>export</title>
    <desc>Created with Sketch.</desc>
    <defs></defs>
    <g id="Page-1" stroke="none" stroke-width="1" fill="none" fill-rule="evenodd" opacity="0.199558424">
        <g id="Dashboard-dividends" transform="translate(-1324.000000, -721.000000)" fill-rule="nonzero" fill="#000000">
            <g id="export" transform="translate(1333.500000, 731.500000) rotate(-180.000000) translate(-1333.500000, -731.500000) translate(1324.000000, 721.000000)">
                <path d="M15.3060323,7.21041176 L12.2071935,7.21041176 L12.2071935,9.06335294 L15.3060323,9.06335294 C16.2275323,9.06335294 16.9424839,9.53770588 16.9424839,9.94597059 L16.9424839,18.1625294 C16.9424839,18.5707941 16.2275323,19.0451471 15.3060323,19.0451471 L3.59283871,19.0451471 C2.67133871,19.0451471 1.9563871,18.5707941 1.9563871,18.1625294 L1.9563871,9.94627941 C1.9563871,9.53801471 2.67133871,9.06366176 3.59283871,9.06366176 L6.69106452,9.06366176 L6.69106452,7.21072059 L3.59283871,7.21072059 C1.6441129,7.21072059 0.117677419,8.41235294 0.117677419,9.94627941 L0.117677419,18.1628382 C0.117677419,19.6970735 1.6441129,20.8983971 3.59283871,20.8983971 L15.3063387,20.8983971 C17.2547581,20.8983971 18.7815,19.6967647 18.7815,18.1628382 L18.7815,9.94627941 C18.7811935,8.41204412 17.2547581,7.21041176 15.3060323,7.21041176 Z" id="Shape"></path>
                <path d="M6.72875806,4.61845588 C6.9641129,4.61845588 7.19916129,4.52797059 7.37874194,4.347 L8.52977419,3.18705882 L8.52977419,7.21041176 L8.52977419,9.06335294 L8.52977419,12.6129706 C8.52977419,13.1246912 8.94133871,13.5394412 9.44912903,13.5394412 C9.95691935,13.5394412 10.3684839,13.1246912 10.3684839,12.6129706 L10.3684839,9.06335294 L10.3684839,7.21041176 L10.3684839,3.12436765 L11.5817258,4.347 C11.7613065,4.52797059 11.9966613,4.61845588 12.2317097,4.61845588 C12.4667581,4.61845588 12.7021129,4.52797059 12.8816935,4.347 C13.2408548,3.98536765 13.2408548,3.39860294 12.8816935,3.03697059 L10.1368065,0.270838235 C9.95722581,0.0898676471 9.72217742,0 9.48712903,0 C9.48467742,0 9.48253226,0 9.48008065,0 C9.47762903,0 9.47548387,0 9.47303226,0 C9.23798387,0 9.00293548,0.0898676471 8.82335484,0.270838235 L6.07846774,3.03697059 C5.71930645,3.39860294 5.71930645,3.98536765 6.07846774,4.347 C6.25835484,4.52797059 6.49340323,4.61845588 6.72875806,4.61845588 Z" id="Shape"></path>
            </g>
        </g>
    </g>
</svg>