<?xml version="1.0" encoding="UTF-8"?>
<svg width="20px" height="16px" viewBox="0 0 20 16" version="1.1" xmlns="http://www.w3.org/2000/svg" xmlns:xlink="http://www.w3.org/1999/xlink">
    <!-- Generator: Sketch 44.1 (41455) - http://www.bohemiancoding.com/sketch -->
    <title>icon</title>
    <desc>Created with Sketch.</desc>
    <defs></defs>
    <g id="Page-1" stroke="none" stroke-width="1" fill="none" fill-rule="evenodd" opacity="0.920572917">
        <g id="Dashboard-dividends" transform="translate(-1229.000000, -112.000000)" fill-rule="nonzero" fill="#5C6278">
            <g id="icon" transform="translate(1229.000000, 112.000000)">
                <path d="M10.1241107,10.7742619 C10.5648525,10.7742619 10.9229553,10.3972965 10.9229553,9.93503727 C10.9229553,9.4737815 10.5648525,9.09944423 10.1241107,9.09944423 L6.50472788,6.31026365 L9.32522043,9.98888946 C9.3513986,10.426779 9.69960474,10.7742619 10.1241107,10.7742619 Z" id="Shape"></path>
                <rect id="Rectangle-path" x="5.79239891" y="13.2454899" width="7.97809365" height="1.98364348"></rect>
                <path d="M16.6979325,3.01309486 C14.8504105,1.07742619 12.3940863,0.0114202971 9.78142292,0.0114202971 C7.16871389,0.0114202971 4.71234418,1.07742619 2.86486774,3.01309486 C1.0173913,4.94876354 0,7.52234421 0,10.2597751 C0,12.027293 0.425007601,13.7259547 1.22298571,15.2291334 L3.05117057,15.2291334 L4.38830952,14.4202036 L3.79779568,13.3485115 L2.07842809,14.3886664 C1.47099422,13.1495403 1.12785041,11.745895 1.12785041,10.2597751 C1.12785041,9.99677377 1.13925205,9.73649612 1.16027668,9.47908549 L3.2103831,9.85781886 L3.41547583,8.63914414 L1.34124354,8.25596689 C1.71188811,6.54134547 2.54758285,5.00968772 3.70161143,3.81457036 L5.1069778,5.56942563 L6.01176649,4.77401866 L4.59572818,3.00592731 C5.89419276,1.98436024 7.47477957,1.33646146 9.19090909,1.21475645 L9.19090909,3.56174696 L10.3719368,3.56174696 L10.3719368,1.21475645 C12.0880663,1.33655703 13.6686531,1.98440802 14.9671633,3.0059751 L13.5510794,4.77401866 L14.4558224,5.56942563 L15.8612344,3.81452257 C17.0152174,5.00968772 17.8509121,6.54134547 18.2215567,8.25591911 L16.14737,8.63919193 L16.3525084,9.85777107 L18.402478,9.47898992 C18.4235026,9.73644833 18.4349042,9.9966782 18.4349042,10.2596795 C18.4349042,11.745895 18.0918972,13.1495881 17.4843721,14.3886186 L15.764959,13.3485593 L15.1744907,14.4202036 L16.5115841,15.2290378 L18.3398601,15.2290378 C19.1378839,13.7258591 19.5628458,12.0271975 19.5628458,10.2596795 C19.5628915,7.52229643 18.5453633,4.94866798 16.6979325,3.01309486 Z" id="Shape"></path>
            </g>
        </g>
    </g>
</svg>