<?xml version="1.0" encoding="UTF-8"?>
<svg width="12px" height="14px" viewBox="0 0 12 14" version="1.1" xmlns="http://www.w3.org/2000/svg" xmlns:xlink="http://www.w3.org/1999/xlink">
    <!-- Generator: Sketch 44.1 (41455) - http://www.bohemiancoding.com/sketch -->
    <title>link</title>
    <desc>Created with Sketch.</desc>
    <defs></defs>
    <g id="Page-1" stroke="none" stroke-width="1" fill="none" fill-rule="evenodd" opacity="0.920000017">
        <g id="Dashboard-Projects" transform="translate(-564.000000, -112.000000)" fill-rule="nonzero" fill="#5A6177">
            <g id="link" transform="translate(570.341368, 119.341368) rotate(-8.000000) translate(-570.341368, -119.341368) translate(563.841368, 112.841368)">
                <path d="M7.58473784,4.77310282 C7.43748683,4.62718434 7.27421444,4.49783773 7.09795503,4.38743039 C6.63110185,4.09293907 6.0883656,3.93645096 5.53400172,3.93645096 C4.764563,3.93504008 4.02639024,4.23620318 3.4832656,4.77310282 L0.848380405,7.3707721 C0.306178204,7.90592607 0.00143221391,8.63099884 0.000946717668,9.38708706 C-7.2824436e-05,10.9648814 1.29746443,12.2447409 2.89911652,12.2457452 C3.66736577,12.2483757 4.40485884,11.9486474 4.94778928,11.4131825 L7.12281244,9.27055794 C7.16233183,9.231962 7.18439764,9.17930509 7.18408206,9.12449598 C7.18342664,9.01179297 7.09013854,8.92097056 6.97573135,8.92161622 L6.89288142,8.92161622 C6.43845694,8.92319449 5.98808635,8.83722646 5.56716111,8.66859043 C5.48960309,8.63714454 5.40046598,8.65488815 5.34138108,8.71347554 L3.77742777,10.2561653 C3.29178588,10.7345732 2.50440808,10.7345732 2.01876619,10.2561653 C1.5331243,9.77775735 1.5331243,9.00210812 2.01876619,8.52370022 L4.66401673,5.91990915 C5.14927022,5.4424817 5.93536146,5.4424817 6.42061495,5.91990915 C6.74764522,6.22310488 7.25775612,6.22310488 7.58476211,5.91990915 C7.72545892,5.78118856 7.81076061,5.59720024 7.82505847,5.40159009 C7.84018168,5.16783836 7.75267098,4.93891709 7.58473784,4.77310282 Z" id="Shape"></path>
                <path d="M11.5805661,0.836795341 C10.4479762,-0.278923809 8.61168376,-0.278923809 7.47909385,0.836795341 L5.30613406,2.97533078 C5.24646657,3.03439643 5.22925573,3.12323405 5.26263359,3.19980418 C5.29562306,3.27658954 5.37271987,3.32587468 5.45734186,3.3242725 L5.53397744,3.3242725 C5.98786788,3.32345945 6.43751022,3.41009705 6.85763439,3.57935483 C6.93519242,3.61080071 7.02432953,3.5930571 7.08341442,3.53446971 L8.64321674,1.99993441 C9.12885863,1.52152651 9.91623643,1.52152651 10.4018783,1.99993441 C10.8875202,2.47834231 10.8875202,3.25399154 10.4018783,3.73239944 L8.45884954,5.64442885 L8.44226984,5.6627942 L7.76284213,6.3280361 C7.27758864,6.80546355 6.4914974,6.80546355 6.00624391,6.3280361 C5.67921364,6.02484037 5.16910274,6.02484037 4.84209675,6.3280361 C4.70050177,6.46780887 4.61512726,6.65339938 4.60180039,6.85042041 C4.5866529,7.08417214 4.6741636,7.31309341 4.84209675,7.4789316 C5.08185907,7.71612683 5.3623788,7.90956088 5.67066891,8.05029018 C5.71416937,8.07068816 5.75766984,8.08702089 5.8011703,8.10538625 C5.84467076,8.1237516 5.89023458,8.13802779 5.93373505,8.15436052 C5.97723551,8.17069325 6.02279933,8.18496944 6.06629979,8.19721301 L6.18852347,8.22985456 C6.27137341,8.25025254 6.35424761,8.26658527 6.43916091,8.28086146 C6.54145497,8.29583114 6.64447727,8.30537251 6.74781514,8.30943776 L6.89280859,8.30943776 L6.9052373,8.30943776 L7.02952434,8.29516157 C7.07508816,8.29312894 7.12273961,8.282918 7.17660542,8.282918 L7.24702665,8.282918 L7.38995674,8.26252002 L7.45625126,8.25027645 L7.5763873,8.22578931 L7.59918135,8.22578931 C8.10800568,8.0998862 8.57262558,7.84035602 8.94354471,7.47484243 L11.5804933,4.87717315 C12.713156,3.761454 12.713156,1.95251449 11.5805661,0.836795341 Z" id="Shape"></path>
            </g>
        </g>
    </g>
</svg>