<?xml version="1.0" encoding="UTF-8"?>
<svg width="23px" height="25px" viewBox="0 0 23 25" version="1.1" xmlns="http://www.w3.org/2000/svg" xmlns:xlink="http://www.w3.org/1999/xlink">
    <!-- Generator: Sketch 44.1 (41455) - http://www.bohemiancoding.com/sketch -->
    <title>Lock icon</title>
    <desc>Created with Sketch.</desc>
    <defs></defs>
    <g id="Web" stroke="none" stroke-width="1" fill="none" fill-rule="evenodd">
        <g id="Add-users" transform="translate(-886.000000, -238.000000)" fill-rule="nonzero" fill="#4E546C">
            <g id="Lock-icon" transform="translate(885.000000, 237.000000)">
                <g id="padlock" transform="translate(8.384761, 10.304004)">
                    <path d="M6.70797307,3.91185112 C6.59666066,3.80336435 6.46158658,3.74916167 6.30254202,3.74916167 L6.11188481,3.74916167 L6.11188481,2.63333554 C6.11188481,1.92049807 5.84965025,1.30843321 5.32501408,0.797039193 C4.80041966,0.285624819 4.17259349,0.0299176323 3.44122235,0.0299176323 C2.70987209,0.0299176323 2.08192064,0.285624819 1.55736799,0.797018839 C1.03273181,1.30843321 0.770497247,1.92047772 0.770497247,2.63333554 L0.770497247,3.74916167 L0.579756523,3.74916167 C0.420837239,3.74916167 0.285679636,3.80336435 0.174388113,3.91185112 C0.0630965903,4.02025647 0.0074717091,4.15200786 0.0074717091,4.30706456 L0.0074717091,7.65431906 C0.0074717091,7.80923328 0.0631174705,7.94102537 0.174388113,8.0495325 C0.285679636,8.1579175 0.420837239,8.21218124 0.579756523,8.21218124 L6.30268818,8.21218124 C6.46173274,8.21218124 6.59678595,8.15797856 6.70811923,8.0495325 C6.81930635,7.94102537 6.87503563,7.80923328 6.87503563,7.65431906 L6.87503563,4.3070035 C6.87511915,4.15206892 6.81930635,4.02033789 6.70797307,3.91185112 Z M4.96733607,3.74916167 L1.91510863,3.74916167 L1.91510863,2.63333554 C1.91510863,2.22269377 2.06417246,1.87205557 2.36223747,1.58154306 C2.66034423,1.29098984 3.01998498,1.14574376 3.44128499,1.14574376 C3.86262676,1.14574376 4.22218399,1.29096949 4.52031164,1.58154306 C4.81829312,1.87203522 4.96733607,2.22269377 4.96733607,2.63333554 L4.96733607,3.74916167 Z" id="Shape"></path>
                </g>
                <g id="reload" transform="translate(12.006950, 13.246197) rotate(-180.000000) translate(-12.006950, -13.246197) translate(0.506950, 0.746197)">
                    <path d="M22.3527671,10.8820241 C22.3527671,4.8816507 17.3480003,0 11.1962852,0 C5.04457014,0 0.0397047133,4.8816507 0.0397047133,10.8820241 C0.0397047133,11.2384623 0.335985723,11.5274521 0.701417053,11.5274521 C1.06684838,11.5274521 1.36312939,11.2384142 1.36312939,10.8820241 C1.36312939,5.59342079 5.77424905,1.29090413 11.1962359,1.29090413 C16.6182228,1.29090413 21.0293424,5.5934689 21.0293424,10.8820241 C21.0293424,16.1705311 16.6182228,20.4730959 11.1962359,20.4730959 L10.0482025,20.4730959 L11.6897581,18.6808015 C11.9332639,18.4150003 11.9096384,18.0069412 11.6371309,17.7694279 C11.3646234,17.5319147 10.9462195,17.5550069 10.702763,17.8208082 L8.35618983,20.3828437 C7.97206523,20.8022564 7.97206523,21.4347913 8.35618983,21.854204 L10.702763,24.4162396 C10.8335173,24.5590266 11.0145807,24.6316709 11.1964825,24.6316709 C11.3533778,24.6316709 11.5109143,24.5775004 11.6371309,24.4676198 C11.9096877,24.2301065 11.9332639,23.8220475 11.6897581,23.5562462 L10.0482025,21.7639519 L11.1962359,21.7639519 C17.3480003,21.7639519 22.3527671,16.8823012 22.3527671,10.8820241 Z" id="Shape"></path>
                </g>
            </g>
        </g>
    </g>
</svg>