<?xml version="1.0" encoding="UTF-8"?>
<svg width="21px" height="16px" viewBox="0 0 21 16" version="1.1" xmlns="http://www.w3.org/2000/svg" xmlns:xlink="http://www.w3.org/1999/xlink">
    <!-- Generator: Sketch 44.1 (41455) - http://www.bohemiancoding.com/sketch -->
    <title>Group 7</title>
    <desc>Created with Sketch.</desc>
    <defs></defs>
    <g id="Page-1" stroke="none" stroke-width="1" fill="none" fill-rule="evenodd" opacity="0.920572917">
        <g id="Dashboard-dividends" transform="translate(-648.000000, -112.000000)">
            <g id="Group-7" transform="translate(645.000000, 112.000000)">
                <path d="M9.73833352,7.7836582 C11.4494401,7.7836582 12.8366966,6.13356642 12.8366966,4.09805992 C12.8366966,2.06251035 12.3812399,0.412418578 9.73833352,0.412418578 C7.09542711,0.412418578 6.63988247,2.06251035 6.63988247,4.09805992 C6.63988247,6.13356642 8.02713901,7.7836582 9.73833352,7.7836582 Z" id="Shape" fill="#5A6177" fill-rule="nonzero"></path>
                <path d="M15.5836835,13.2623177 C15.5263008,9.71641615 15.0534314,8.70602669 11.4348855,8.06645356 C11.4348855,8.06645356 10.9255198,8.70210794 9.73828954,8.70210794 C8.55105931,8.70210794 8.04160563,8.06645356 8.04160563,8.06645356 C4.46254619,8.69905046 3.96091944,9.69445397 3.8949622,13.1471239 C3.88955371,13.429058 3.88704733,13.4438718 3.88607996,13.4111438 C3.88629982,13.4724657 3.88656365,13.5858939 3.88656365,13.7836827 C3.88656365,13.7836827 4.74805308,15.4845028 9.73828954,15.4845028 C14.7284381,15.4845028 15.5900154,13.7836827 15.5900154,13.7836827 C15.5900154,13.6566035 15.5901034,13.568238 15.5902353,13.5081219 C15.5892679,13.5283616 15.5873332,13.4891311 15.5836835,13.2623177 Z" id="Shape" fill="#5A6177" fill-rule="nonzero"></path>
                <g id="Group-5" transform="translate(15.635452, 9.073209)">
                    <path d="M0.157110963,4.48036379 C0.155229692,4.07911008 0.153348421,4.36731105 0.157110963,4.48036379 L0.157110963,4.48036379 Z" id="Shape" fill="#000000" fill-rule="nonzero"></path>
                    <path d="M1.37959866,0.907320872 L7.68620436,0.907320872" id="Path-3" stroke="#676E82"></path>
                    <path d="M1.37959866,2.72196262 L6.56457756,2.72196262" id="Path-3-Copy" stroke="#676E82"></path>
                    <path d="M1.37959866,4.53660436 L5.18913998,4.53660436" id="Path-3-Copy-2" stroke="#676E82"></path>
                </g>
            </g>
        </g>
    </g>
</svg>