<?xml version="1.0" encoding="UTF-8"?>
<svg width="17px" height="17px" viewBox="0 0 17 17" version="1.1" xmlns="http://www.w3.org/2000/svg" xmlns:xlink="http://www.w3.org/1999/xlink">
    <!-- Generator: Sketch 44.1 (41455) - http://www.bohemiancoding.com/sketch -->
    <title>recycle</title>
    <desc>Created with Sketch.</desc>
    <defs></defs>
    <g id="Page-1" stroke="none" stroke-width="1" fill="none" fill-rule="evenodd" opacity="0.920572917">
        <g id="Dashboard-dividends" transform="translate(-556.000000, -111.000000)" stroke="#4E546C" fill-rule="nonzero" stroke-width="0.2" fill="#4E546C">
            <g id="recycle" transform="translate(557.000000, 112.000000)">
                <path d="M14.9505817,5.55418329 C14.3063986,3.19775956 12.4874745,1.33734215 10.2086107,0.447929989 L10.0816406,0.398367984 C9.91826172,0.334632672 9.73404806,0.41512636 9.67020635,0.578253102 L9.43900306,1.16871842 C9.37516135,1.33178574 9.45585513,1.51568217 9.61923404,1.57938777 L9.75199983,1.63117828 C11.6870754,2.38581031 13.231284,3.97446867 13.7496561,5.98276983 C13.970873,6.83991321 14.0067468,7.71907424 13.8771909,8.5671253 L13.0620797,8.57164174 C12.964088,8.57226573 12.871357,8.61808384 12.8117952,8.69611131 C12.7519361,8.77381194 12.731785,8.8750456 12.7568996,8.96980173 L13.4531547,11.5979251 C13.4854025,11.7196016 13.5868122,11.8106138 13.7111965,11.8301058 C13.7276325,11.8325721 13.7440684,11.83382 13.7602072,11.83382 C13.8675017,11.83382 13.9689411,11.7793256 14.027849,11.6873922 C14.4399074,11.043205 14.7466627,10.3478216 14.9479068,9.61425636 C14.9479068,9.61425636 15.0020593,9.38079793 15.0276792,9.26628236 C15.052556,9.15559983 15.1014181,8.91040458 15.1021612,8.89798437 C15.2908331,7.80143987 15.2529382,6.66029551 14.9505817,5.55418329 Z" id="Shape"></path>
                <path d="M12.2689326,12.4061007 C12.1593792,12.2693298 11.9595024,12.2471636 11.8225459,12.3565684 L11.711239,12.445471 C10.0890115,13.7410658 7.93866338,14.2817017 5.93721977,13.7256742 C5.08299507,13.4883233 4.30233101,13.0797934 3.63139861,12.5437631 L4.03504586,11.8368211 C4.08349185,11.751811 4.09009001,11.6487053 4.05222486,11.5582279 C4.01474609,11.4676317 3.93696501,11.3995879 3.84221298,11.3739452 L1.2140625,10.6618034 C1.09241253,10.6288215 0.962737772,10.6710146 0.883619226,10.7687718 C0.873276155,10.7817268 0.863973336,10.7953059 0.855889096,10.8093009 C0.802241848,10.9020662 0.798823879,11.0169681 0.849112602,11.1138933 C1.20196586,11.7922212 1.65185971,12.4050905 2.18764861,12.9458749 C2.18764861,12.9458749 2.36309443,13.1094177 2.44964334,13.188812 C2.53322011,13.2656806 2.7215056,13.430501 2.73190812,13.4373351 C3.58883747,14.1487044 4.59779212,14.6865472 5.7085428,14.9781845 C8.07493631,15.5994924 10.5984078,14.9572366 12.5094684,13.4318381 L12.6159604,13.3468577 C12.7529169,13.2374826 12.7752081,13.0379866 12.665625,12.9012454 L12.2689326,12.4061007 Z" id="Shape"></path>
                <path d="M1.37117018,8.87278738 L1.34968156,8.73206456 C1.03683339,6.68186746 1.64294327,4.55257321 3.1260445,3.1002995 C3.75908203,2.48050702 4.50381284,2.00987597 5.30433084,1.69788494 L5.71579484,2.40028076 C5.76534052,2.48472633 5.85147334,2.5419544 5.94890031,2.55440433 C6.04623811,2.56729996 6.14417035,2.53413977 6.21380774,2.46505604 L8.14570313,0.549074511 C8.2351053,0.460350203 8.26337041,0.327174601 8.21810462,0.209925398 C8.21201172,0.194444699 8.20487857,0.179617697 8.19682405,0.165682097 C8.1431768,0.0729167623 8.0451554,0.0124796415 7.93595873,0.00751749831 C7.17104704,-0.0266232351 6.41439793,0.0558612523 5.67736498,0.248701426 C5.67736498,0.248701426 5.44773692,0.318617132 5.33559783,0.353738409 C5.22711447,0.387552295 4.9899966,0.467897415 4.97885105,0.473513254 C3.93322011,0.85865876 2.96216033,1.46196028 2.15379586,2.27640546 C0.431615149,4.01149161 -0.272932235,6.51416485 0.0949006454,8.92897548 L0.115378736,9.0635179 C0.141771399,9.23662835 0.303693954,9.35563065 0.477148438,9.32927484 L1.10501444,9.23392443 C1.27840948,9.20756862 1.39759256,9.04583841 1.37117018,8.87278738 Z" id="Shape"></path>
            </g>
        </g>
    </g>
</svg>