<?xml version="1.0" encoding="UTF-8"?>
<svg width="134px" height="34px" viewBox="0 0 134 34" version="1.1" xmlns="http://www.w3.org/2000/svg" xmlns:xlink="http://www.w3.org/1999/xlink">
    <!-- Generator: Sketch 44.1 (41455) - http://www.bohemiancoding.com/sketch -->
    <title>Group 4</title>
    <desc>Created with Sketch.</desc>
    <defs></defs>
    <g id="Page-1" stroke="none" stroke-width="1" fill="none" fill-rule="evenodd">
        <g id="Log-In" transform="translate(-616.000000, -73.000000)" fill="#FFFFFF">
            <g id="Group-4" transform="translate(616.000000, 73.000000)">
                <g id="Page-1">
                    <path d="M14.4635234,14.0518565 L14.1368237,13.989744 C8.78601321,12.9870699 6.39757386,12.1485504 6.39757386,9.84151259 C6.39757386,8.30644515 7.17017439,7.16623609 8.75952405,6.36320948 C10.6534991,5.40490148 12.9139075,5.30285943 13.7880498,5.30285943 C16.7151021,5.33835231 19.6642287,5.76426698 21.421343,8.6081347 L21.5361294,8.79447237 L21.5361294,8.79447237 C21.6376712,9.02517614 21.7657021,9.23813348 21.9246371,9.42447114 C22.0085194,9.52207659 22.0968166,9.61080881 22.1939435,9.69066781 C22.622185,10.0633431 23.1784574,10.2896103 23.7832932,10.2896103 C24.3307359,10.2896103 24.8428596,10.1032726 25.2446119,9.79270987 L25.399132,9.66404814 C25.9024261,9.22482364 26.2158811,8.5682052 26.2158811,7.84503759 C26.2158811,7.67200976 26.1982217,7.49898192 26.158488,7.33482731 L26.158488,7.33482731 C26.1099245,7.07306726 26.0127976,6.82905365 25.8803518,6.60722309 C25.8450329,6.54511054 25.8052991,6.48299798 25.7611505,6.42532204 L25.5139184,6.0526467 C22.4455906,1.44744437 18.6134919,0.506882819 13.8057092,0.506882819 C9.62925151,0.506882819 5.85896092,1.8156831 3.71775374,4.01180559 C2.17255269,5.59567576 1.40878188,7.59215076 1.45734534,9.9258082 C1.45734534,16.4210069 8.0001681,17.7076241 13.2626814,18.7369179 C18.516365,19.7484652 21.6994792,20.5825481 21.67299,23.6349365 C21.67299,27.9561957 16.1720743,28.4220399 13.8057092,28.4220399 C10.6314248,28.4220399 6.63156145,26.8647894 5.13492386,23.89226 L4.52567315,22.6855017 L4.49300319,22.7019172 C4.12480385,22.1641999 3.55837729,21.7742218 2.89658975,21.6584263 C2.75972909,21.6309193 2.6140387,21.6171658 2.46834832,21.6171658 C2.07675022,21.6171658 1.70325305,21.70856 1.37522894,21.8780385 C1.05647604,22.0337636 0.778781333,22.2578124 0.555830895,22.528002 C0.209705858,22.9583533 0,23.5071621 0,24.0976751 C0,24.3767379 0.0485634618,24.6442655 0.133770263,24.8944904 L0.124057571,24.8993707 L0.165998742,24.9836663 C0.224716382,25.1358421 0.297561575,25.2809192 0.383651348,25.4171232 L0.733308273,26.1150021 C3.35132035,31.3235836 9.20101007,33.178087 13.8057092,33.178087 C16.0307987,33.178087 19.2536467,32.8719608 21.9687857,31.4078792 C24.9841352,29.7796429 26.5867294,27.108803 26.6088037,23.674866 C26.6088037,16.3988238 19.8761419,15.0988968 14.4635234,14.0518565" id="Fill-1"></path>
                    <path d="M131.051592,26.2075942 C130.861312,26.1694393 130.658228,26.1503619 130.455144,26.1503619 C129.909468,26.1503619 129.388956,26.2776927 128.932018,26.5137204 C128.487883,26.7306707 128.1007,27.0430081 127.789452,27.4192327 C127.307349,28.0190625 127.015527,28.7843779 127.015527,29.6069256 C127.015527,31.5075698 128.557638,33.0572781 130.455144,33.0572781 C131.229511,33.0572781 131.946484,32.795518 132.517767,32.3554062 L132.733212,32.1770544 C133.444005,31.5519359 133.888581,30.6273462 133.888581,29.6069256 C133.888581,27.9041543 132.657277,26.487988 131.051592,26.2075942" id="Fill-3"></path>
                    <path d="M123.161266,14.6107808 L104.848426,14.6107808 C104.738054,14.6240906 104.632098,14.6418371 104.526141,14.6684567 C103.921305,14.8104283 103.404766,15.1875402 103.069237,15.6933139 C103.060407,15.7066237 103.051578,15.7199336 103.047163,15.7332434 C102.804345,16.1103554 102.66307,16.5628897 102.66307,17.0464803 C102.66307,17.5478173 102.813175,18.0136615 103.069237,18.3996467 C103.192853,18.5815477 103.334129,18.750139 103.501893,18.8876739 C103.788859,19.1449973 104.142048,19.331335 104.526141,19.4156306 C104.592364,19.4378137 104.658587,19.4511235 104.729225,19.4599967 L123.496795,19.4599967 L123.545359,19.3978842 C126.494485,19.4200672 127.629104,17.8672533 128.004367,16.2301439 C127.651179,7.41016097 120.631551,0.355949309 111.97401,0.231724198 C111.894543,0.227287587 111.815075,0.227287587 111.735608,0.227287587 C109.762165,0.227287587 107.86819,0.586653087 106.115491,1.24770814 C100.852977,3.23530992 96.8663586,7.92480786 95.7626435,13.6746559 C95.55956,14.7261327 95.4536033,15.8131024 95.4536033,16.9266918 C95.4536033,19.4866164 96.0142906,21.9134427 97.0208787,24.0785089 C97.0341233,24.1095652 97.0473678,24.1450581 97.0650273,24.1761143 C97.4579498,25.0190705 97.9215102,25.8220971 98.4468785,26.576321 C98.4689528,26.6073772 98.4910271,26.6428701 98.5131014,26.6739264 C100.173089,29.0386401 102.415838,30.9375097 105.03385,32.1531411 L105.038265,32.1531411 C107.157398,33.0892661 109.550252,33.5950397 112.132945,33.5950397 C112.43757,33.5950397 112.742196,33.5861665 113.042406,33.5728567 C114.282982,33.4708146 115.483824,33.226801 116.627273,32.8541257 C116.662592,32.8408158 116.69791,32.8319426 116.737644,32.8186328 C119.324752,32.0599723 122.803662,30.5382147 125.09056,27.5479388 C125.134708,27.4902628 125.178857,27.4325869 125.218591,27.3704743 C125.306888,27.237376 125.38194,27.0954045 125.439334,26.9489963 C125.456993,26.9001936 125.474652,26.8469542 125.492312,26.7937149 C125.55412,26.5896308 125.589439,26.3678002 125.589439,26.1415331 C125.589439,26.0128713 125.576194,25.8842096 125.55412,25.7644211 L125.55412,25.7466747 C125.54529,25.6889987 125.532046,25.6357594 125.518801,25.5825201 C125.514386,25.5736468 125.514386,25.5692102 125.509971,25.560337 C125.505556,25.5292807 125.496727,25.4982245 125.483482,25.4716048 C125.22742,24.6685782 124.521043,24.0696357 123.660145,23.9720302 C123.615996,23.963157 123.567433,23.9587204 123.518869,23.9587204 L123.496795,23.9587204 C123.465891,23.9542838 123.434987,23.9542838 123.408498,23.9542838 C122.733024,23.9542838 122.128188,24.2648466 121.726436,24.7484372 C121.346758,25.1654786 120.900857,25.560337 120.401978,25.9197025 C119.669111,26.4520958 118.812628,26.9223766 117.885508,27.3039252 C117.881093,27.3083618 117.881093,27.3083618 117.876678,27.3083618 C117.863434,27.3127984 117.850189,27.3127984 117.836944,27.317235 L117.832529,27.3261082 C116.097489,28.0315294 114.106388,28.4396976 112.132945,28.4396976 C107.024952,28.4396976 101.599089,25.2897037 100.994253,18.2621117 C100.941275,17.5566906 100.897126,16.3632422 100.981008,15.9240177 L100.994253,15.8219756 C101.064891,15.0544419 101.188507,14.3224011 101.365101,13.6258531 C101.669726,12.3880386 102.146531,11.243393 102.777856,10.2229724 C104.760129,7.03304903 108.172815,5.20072864 112.132945,5.20072864 C114.03575,5.20072864 115.726641,5.50241819 117.17913,6.07474103 C117.293917,6.11910714 117.404288,6.16790986 117.519074,6.21671258 C117.642691,6.26995192 117.761892,6.32319125 117.881093,6.38086719 C117.898752,6.3853038 117.911997,6.39417703 117.925242,6.39861364 C118.066517,6.46959941 118.203378,6.5450218 118.340238,6.61600758 C121.271706,8.19100452 123.359934,11.1369143 123.757272,14.6063442 L123.161266,14.6063442 L123.161266,14.6107808 Z" id="Fill-5"></path>
                    <path d="M76.1200804,0.532393333 L76.1038452,0.532393333 C76.1146687,0.637083043 76.1200804,0.741772754 76.1200804,0.846462464 L76.1200804,0.532393333 Z" id="Fill-7"></path>
                    <path d="M93.2688215,0.244013611 C93.1319608,0.217393944 92.9818556,0.1996475 92.8361652,0.1996475 C92.4388278,0.1996475 92.0547349,0.297252944 91.7192056,0.470280777 C91.3925059,0.625562166 91.1099549,0.860702555 90.884797,1.13133583 C90.7744255,1.26887078 90.6772986,1.41527894 90.5978311,1.57499694 C90.5536825,1.65929255 90.5183636,1.74358817 90.4874596,1.83232039 C90.4653853,1.86337667 90.4477258,1.89886955 90.4300664,1.92992583 L90.253472,2.37358694 L87.8297137,8.47392721 L87.7988097,8.55822283 L86.05494,13.0392 L85.9710576,13.2610306 L85.9666428,13.256594 L85.547231,14.2725779 L83.1764511,20.0534822 L80.6599808,26.1893154 L78.1170214,19.9958063 L75.7462415,14.214902 L75.3268298,13.198918 L75.2385326,12.9815241 L73.4946628,8.50054688 L73.4637588,8.41625127 L71.0400005,2.315911 L70.8634061,1.87224989 C70.8457467,1.84119361 70.8280873,1.80570072 70.806013,1.77464444 C70.7751089,1.68591222 70.7397901,1.60161661 70.6956415,1.517321 C70.616174,1.357603 70.519047,1.21119483 70.4086755,1.07365989 C70.1835177,0.80302661 69.9009666,0.567886222 69.574267,0.412604833 C69.2387376,0.239577 68.8546448,0.141971555 68.4573073,0.141971555 C68.311617,0.141971555 68.1615117,0.159718 68.0246511,0.186337667 C66.8458834,0.394858389 65.9452519,1.42858878 65.9452519,2.67971311 C65.9452519,2.86161416 65.9673262,3.04795183 66.0026451,3.22541627 C66.00706,3.22985289 66.00706,3.2342895 66.00706,3.23872611 C66.0335491,3.36295122 66.0732829,3.48273972 66.1174315,3.59809161 C66.1174315,3.60252822 66.1218463,3.60696483 66.1218463,3.61140144 L66.4132271,4.33900566 L66.4132271,4.34344227 L74.4394429,24.4989665 L74.4394429,24.5122764 L74.4835915,24.6231916 L74.4880063,24.618755 L75.0619382,25.9941045 L77.4459626,31.704023 C77.4459626,31.7084596 77.4503775,31.7128962 77.4503775,31.7217694 L77.5519193,31.965783 C77.909523,32.7466266 78.5496777,33.3721887 79.3399377,33.7093712 C79.7505196,33.882399 80.2008354,33.9800045 80.6732254,33.9800045 C81.1412006,33.9800045 81.5826866,33.8868356 81.9888538,33.7093712 C82.2581602,33.5984559 82.5053924,33.4520477 82.7305503,33.2790199 L82.9468784,33.1015555 C83.2735781,32.8176124 83.5428845,32.4671201 83.7327235,32.0766983 L83.9225625,31.6286006 C83.9225625,31.624164 83.9269774,31.6152908 83.9269774,31.6064175 C83.9402219,31.566488 83.9534665,31.5309951 83.9622962,31.4910656 L86.2315344,26.0517804 L86.8054662,24.676431 L86.8098811,24.6808676 L86.8540297,24.5699523 L86.8540297,24.5566425 L94.8802454,4.40111822 L94.8802454,4.39668161 L95.1716262,3.66907739 C95.1716262,3.66464077 95.1760411,3.66020416 95.1760411,3.65576755 C95.2201897,3.54041566 95.2599234,3.42062716 95.2864126,3.29640205 C95.2864126,3.29196544 95.2864126,3.28752883 95.2908274,3.28309222 C95.3261463,3.10562778 95.3482206,2.91929011 95.3482206,2.73738905 C95.3482206,1.48626472 94.4475891,0.452534333 93.2688215,0.244013611" id="Fill-9"></path>
                    <path d="M54.9037308,25.3197396 C52.7404493,27.7731855 49.6279729,29.0642394 45.9150755,29.0642394 C39.1250206,29.0642394 34.1980366,23.9843196 34.1980366,16.9833473 C34.1980366,10.0089947 39.1250206,4.95569461 45.9150755,4.95569461 C54.1487897,4.95569461 57.897006,11.202443 57.897006,17.009967 C57.897006,20.1865805 56.8374395,23.1324903 54.9037308,25.3197396 M62.4429875,2.42860092 C62.4429875,2.33765039 62.4376897,2.25069281 62.4266525,2.16373524 L62.4266525,2.14288316 C62.3030364,1.0780965 61.4862873,0.217393944 60.45321,0.0399295 C60.3163494,0.0133098333 60.1750738,0 60.0337983,0 C59.6497055,0 59.2832721,0.0887322221 58.9609873,0.252886833 C58.6475322,0.408168222 58.3782257,0.625562166 58.1574827,0.891758833 C58.1305521,0.925033416 58.1089193,0.962300949 58.0837546,0.996906516 C57.8435862,1.3278777 57.6789119,1.71829948 57.6307899,2.14465781 C57.6175453,2.23782664 57.6131305,2.33099548 57.6131305,2.42860092 C57.6131305,2.52176975 57.6175453,2.61493859 57.6307899,2.70810742 C57.6312314,2.70988206 57.6316729,2.71165671 57.6321144,2.71387501 L57.6321144,5.430412 C54.8772416,2.15175639 50.6787096,0.266196666 45.9150755,0.266196666 C36.5025936,0.266196666 29.4079133,7.44907005 29.4079133,16.9833473 C29.4079133,26.5841738 36.5025936,33.8202865 45.9150755,33.8202865 C50.5948273,33.8202865 54.6741581,31.9613464 57.6321144,28.5274094 L57.6321144,31.2479394 C57.6321144,31.251045 57.6307899,31.2541506 57.6307899,31.2576999 C57.6263751,31.2931928 57.6263751,31.3286857 57.6263751,31.3641786 C57.6263751,31.3907982 57.6263751,31.4218545 57.6307899,31.4484742 C57.6705237,32.739528 58.7300901,33.777695 60.0324738,33.777695 C60.5710868,33.777695 61.0743808,33.5957939 61.4717183,33.2896678 L61.6262384,33.1654427 C61.7401418,33.0642879 61.8443325,32.9520417 61.937486,32.8309222 C62.2160637,32.4680074 62.3935411,32.0225716 62.4266525,31.5398684 L62.4266525,31.5176853 C62.4323918,31.4671079 62.4341578,31.4138686 62.4341578,31.3641786 C62.4341578,31.2989604 62.4301844,31.2364042 62.4266525,31.1720733 L62.4266525,2.70189616 C62.4376897,2.61050198 62.4429875,2.51955145 62.4429875,2.42860092" id="Fill-11"></path>
                </g>
            </g>
        </g>
    </g>
</svg>
