<?xml version="1.0" encoding="utf-8"?>
<!-- Generator: Adobe Illustrator 17.0.0, SVG Export Plug-In . SVG Version: 6.00 Build 0)  -->
<!DOCTYPE svg PUBLIC "-//W3C//DTD SVG 1.1//EN" "http://www.w3.org/Graphics/SVG/1.1/DTD/svg11.dtd">
<svg version="1.1" id="Layer_1" xmlns="http://www.w3.org/2000/svg" xmlns:xlink="http://www.w3.org/1999/xlink" x="0px" y="0px"
	 width="134px" height="34px" viewBox="0 0 134 34" enable-background="new 0 0 134 34" xml:space="preserve">
<title>Group 4</title>
<desc>Created with Sketch.</desc>
<g id="Page-1_1_">
	<g id="Log-In" transform="translate(-616.000000, -73.000000)">
		<g id="Group-4" transform="translate(616.000000, 73.000000)">
			<g id="Page-1">
				<path id="Fill-1" fill="#FFFFFF" d="M14.464,14.052l-0.327-0.062c-5.351-1.003-7.739-1.841-7.739-4.148
					c0-1.535,0.773-2.675,2.362-3.478c1.894-0.958,4.154-1.06,5.029-1.06c2.927,0.035,5.876,0.461,7.633,3.305l0.115,0.186l0,0
					c0.102,0.231,0.23,0.444,0.389,0.63c0.084,0.098,0.172,0.186,0.269,0.266c0.428,0.373,0.985,0.599,1.589,0.599
					c0.547,0,1.06-0.186,1.461-0.497l0.155-0.129c0.503-0.439,0.817-1.096,0.817-1.819c0-0.173-0.018-0.346-0.057-0.51l0,0
					c-0.049-0.262-0.146-0.506-0.278-0.728c-0.035-0.062-0.075-0.124-0.119-0.182l-0.247-0.373c-3.068-4.605-6.9-5.546-11.708-5.546
					c-4.176,0-7.947,1.309-10.088,3.505c-1.545,1.584-2.309,3.58-2.26,5.914c0,6.495,6.543,7.782,11.805,8.811
					c5.254,1.012,8.437,1.846,8.41,4.898c0,4.321-5.501,4.787-7.867,4.787c-3.174,0-7.174-1.557-8.671-4.53l-0.609-1.207
					l-0.033,0.016c-0.368-0.538-0.935-0.928-1.596-1.043c-0.137-0.028-0.283-0.041-0.428-0.041c-0.392,0-0.765,0.091-1.093,0.261
					c-0.319,0.156-0.596,0.38-0.819,0.65C0.21,22.958,0,23.507,0,24.098c0,0.279,0.049,0.547,0.134,0.797l-0.01,0.005l0.042,0.084
					c0.059,0.152,0.132,0.297,0.218,0.433l0.35,0.698c2.618,5.209,8.468,7.063,13.072,7.063c2.225,0,5.448-0.306,8.163-1.77
					c3.015-1.628,4.618-4.299,4.64-7.733C26.609,16.399,19.876,15.099,14.464,14.052"/>
				<path id="Fill-3" fill="#1DB3CE" d="M131.052,26.208c-0.19-0.038-0.393-0.057-0.596-0.057c-0.546,0-1.066,0.127-1.523,0.363
					c-0.444,0.217-0.831,0.529-1.143,0.906c-0.482,0.6-0.774,1.365-0.774,2.188c0,1.901,1.542,3.45,3.44,3.45
					c0.774,0,1.491-0.262,2.063-0.702l0.215-0.178c0.711-0.625,1.155-1.55,1.155-2.57C133.889,27.904,132.657,26.488,131.052,26.208
					"/>
				<path id="Fill-5" fill="#FFFFFF" d="M123.161,14.611h-18.313c-0.11,0.013-0.216,0.031-0.322,0.058
					c-0.605,0.142-1.121,0.519-1.457,1.025c-0.009,0.013-0.018,0.027-0.022,0.04c-0.243,0.377-0.384,0.83-0.384,1.313
					c0,0.501,0.15,0.967,0.406,1.353c0.124,0.182,0.265,0.35,0.433,0.488c0.287,0.257,0.64,0.444,1.024,0.528
					c0.066,0.022,0.132,0.035,0.203,0.044h18.768l0.049-0.062c2.949,0.022,4.084-1.531,4.459-3.168
					c-0.353-8.82-7.373-15.874-16.03-15.998c-0.079-0.004-0.159-0.004-0.238-0.004c-1.973,0-3.867,0.359-5.62,1.02
					c-5.263,1.988-9.249,6.677-10.353,12.427c-0.203,1.051-0.309,2.138-0.309,3.252c0,2.56,0.561,4.987,1.567,7.152
					c0.013,0.031,0.026,0.067,0.044,0.098c0.393,0.843,0.856,1.646,1.382,2.4c0.022,0.031,0.044,0.067,0.066,0.098
					c1.66,2.365,3.903,4.264,6.521,5.479h0.004c2.119,0.936,4.512,1.442,7.095,1.442c0.305,0,0.609-0.009,0.909-0.022
					c1.241-0.102,2.441-0.346,3.585-0.719c0.035-0.013,0.071-0.022,0.11-0.035c2.587-0.759,6.066-2.28,8.353-5.271
					c0.044-0.058,0.088-0.115,0.128-0.177c0.088-0.133,0.163-0.275,0.221-0.421c0.018-0.049,0.035-0.102,0.053-0.155
					c0.062-0.204,0.097-0.426,0.097-0.652c0-0.129-0.013-0.257-0.035-0.377v-0.018c-0.009-0.058-0.022-0.111-0.035-0.164
					c-0.004-0.009-0.004-0.013-0.009-0.022c-0.004-0.031-0.013-0.062-0.026-0.089c-0.256-0.803-0.962-1.402-1.823-1.5
					c-0.044-0.009-0.093-0.013-0.141-0.013h-0.022c-0.031-0.004-0.062-0.004-0.088-0.004c-0.675,0-1.28,0.311-1.682,0.794
					c-0.38,0.417-0.826,0.812-1.324,1.171c-0.733,0.532-1.589,1.003-2.516,1.384c-0.004,0.004-0.004,0.004-0.009,0.004
					c-0.013,0.004-0.026,0.004-0.04,0.009l-0.004,0.009c-1.735,0.705-3.726,1.114-5.7,1.114c-5.108,0-10.534-3.15-11.139-10.178
					c-0.053-0.705-0.097-1.899-0.013-2.338l0.013-0.102c0.071-0.768,0.194-1.5,0.371-2.196c0.305-1.238,0.781-2.382,1.413-3.403
					c1.982-3.19,5.395-5.022,9.355-5.022c1.903,0,3.594,0.302,5.046,0.874c0.115,0.044,0.225,0.093,0.34,0.142
					c0.124,0.053,0.243,0.106,0.362,0.164c0.018,0.004,0.031,0.013,0.044,0.018c0.141,0.071,0.278,0.146,0.415,0.217
					c2.931,1.575,5.02,4.521,5.417,7.99h-0.596V14.611z"/>
				<path id="Fill-7" fill="#FFFFFF" d="M76.12,0.532h-0.016c0.011,0.105,0.016,0.209,0.016,0.314V0.532z"/>
				<path id="Fill-9" fill="#FFFFFF" d="M93.269,0.244C93.132,0.217,92.982,0.2,92.836,0.2c-0.397,0-0.781,0.098-1.117,0.271
					c-0.327,0.155-0.609,0.39-0.834,0.661c-0.11,0.138-0.207,0.284-0.287,0.444c-0.044,0.084-0.079,0.169-0.11,0.257
					c-0.022,0.031-0.04,0.067-0.057,0.098l-0.177,0.444l-2.424,6.1l-0.031,0.084l-1.744,4.481l-0.084,0.222l-0.004-0.004
					l-0.419,1.016l-2.371,5.781l-2.516,6.136l-2.543-6.194l-2.371-5.781l-0.419-1.016l-0.088-0.217l-1.744-4.481l-0.031-0.084
					l-2.424-6.1l-0.177-0.444c-0.018-0.031-0.035-0.067-0.057-0.098c-0.031-0.089-0.066-0.173-0.11-0.257
					c-0.079-0.16-0.177-0.306-0.287-0.444c-0.225-0.271-0.508-0.506-0.834-0.661c-0.336-0.173-0.72-0.271-1.117-0.271
					c-0.146,0-0.296,0.018-0.433,0.044c-1.179,0.209-2.079,1.242-2.079,2.493c0,0.182,0.022,0.368,0.057,0.546
					c0.004,0.004,0.004,0.009,0.004,0.013c0.026,0.124,0.066,0.244,0.11,0.359c0,0.004,0.004,0.009,0.004,0.013l0.291,0.728v0.004
					l8.026,20.156v0.013l0.044,0.111l0.004-0.004l0.574,1.375l2.384,5.71c0,0.004,0.004,0.009,0.004,0.018l0.102,0.244
					c0.358,0.781,0.998,1.406,1.788,1.744c0.411,0.173,0.861,0.271,1.333,0.271c0.468,0,0.909-0.093,1.316-0.271
					c0.269-0.111,0.517-0.257,0.742-0.43l0.216-0.177c0.327-0.284,0.596-0.634,0.786-1.025l0.19-0.448
					c0-0.004,0.004-0.013,0.004-0.022c0.013-0.04,0.026-0.075,0.035-0.115l2.269-5.439l0.574-1.375l0.004,0.004l0.044-0.111v-0.013
					L94.88,4.401V4.397l0.291-0.728c0-0.004,0.004-0.009,0.004-0.013c0.044-0.115,0.084-0.235,0.11-0.359
					c0-0.004,0-0.009,0.004-0.013c0.035-0.177,0.057-0.364,0.057-0.546C95.348,1.486,94.448,0.453,93.269,0.244"/>
				<path id="Fill-11" fill="#FFFFFF" d="M54.904,25.32c-2.163,2.453-5.276,3.744-8.989,3.744c-6.79,0-11.717-5.08-11.717-12.081
					c0-6.974,4.927-12.028,11.717-12.028c8.234,0,11.982,6.247,11.982,12.054C57.897,20.187,56.837,23.132,54.904,25.32
					 M62.443,2.429c0-0.091-0.005-0.178-0.016-0.265V2.143c-0.124-1.065-0.94-1.925-1.973-2.103C60.316,0.013,60.175,0,60.034,0
					c-0.384,0-0.751,0.089-1.073,0.253c-0.313,0.155-0.583,0.373-0.804,0.639c-0.027,0.033-0.049,0.071-0.074,0.105
					c-0.24,0.331-0.405,0.721-0.453,1.148c-0.013,0.093-0.018,0.186-0.018,0.284c0,0.093,0.004,0.186,0.018,0.28
					c0,0.002,0.001,0.004,0.001,0.006V5.43c-2.755-3.279-6.953-5.164-11.717-5.164c-9.412,0-16.507,7.183-16.507,16.717
					c0,9.601,7.095,16.837,16.507,16.837c4.68,0,8.759-1.859,11.717-5.293v2.721c0,0.003-0.001,0.006-0.001,0.01
					c-0.004,0.035-0.004,0.071-0.004,0.106c0,0.027,0,0.058,0.004,0.084c0.04,1.291,1.099,2.329,2.402,2.329
					c0.539,0,1.042-0.182,1.439-0.488l0.155-0.124c0.114-0.101,0.218-0.213,0.311-0.335c0.279-0.363,0.456-0.808,0.489-1.291v-0.022
					c0.006-0.051,0.008-0.104,0.008-0.154c0-0.065-0.004-0.128-0.008-0.192V2.702C62.438,2.611,62.443,2.52,62.443,2.429"/>
			</g>
		</g>
	</g>
</g>
</svg>
