<?xml version="1.0" encoding="UTF-8"?>
<svg width="17px" height="17px" viewBox="0 0 17 17" version="1.1" xmlns="http://www.w3.org/2000/svg" xmlns:xlink="http://www.w3.org/1999/xlink">
    <!-- Generator: Sketch 44.1 (41455) - http://www.bohemiancoding.com/sketch -->
    <title>settings (1) copy</title>
    <desc>Created with Sketch.</desc>
    <defs></defs>
    <g id="Page-1" stroke="none" stroke-width="1" fill="none" fill-rule="evenodd">
        <g id="Settings" transform="translate(-207.000000, -112.000000)" fill-rule="nonzero" fill="#4E546C">
            <g id="settings-(1)-copy" transform="translate(207.000000, 112.000000)">
                <path d="M16.119833,6.71130898 L14.9273486,6.50901253 C14.8031315,6.10796868 14.6434238,5.72112109 14.4482255,5.35201879 L15.1509395,4.36892902 C15.4490605,3.95013987 15.4029228,3.37874113 15.0373695,3.01673695 L13.9797495,1.95911691 C13.7810021,1.76036952 13.5183716,1.65034864 13.2379958,1.65034864 C13.0179541,1.65034864 12.8085595,1.71778079 12.6311065,1.84554697 L11.6444676,2.54826096 C11.2611691,2.34596451 10.8601253,2.17915866 10.4448852,2.05494154 L10.2461378,0.876653445 C10.1609603,0.369137787 9.72442589,3.54906054e-05 9.20981211,3.54906054e-05 L7.71565762,3.54906054e-05 C7.20104384,3.54906054e-05 6.76450939,0.369137787 6.67933194,0.876653445 L6.47348643,2.08333403 C6.07599165,2.20755115 5.68914405,2.37080793 5.32004175,2.56955532 L4.3440501,1.86684134 C4.16659708,1.73907516 3.95365344,1.67164301 3.73361169,1.67164301 C3.45323591,1.67164301 3.18705637,1.78166388 2.99185804,1.98041127 L1.93068894,3.03803132 C1.56868476,3.40003549 1.51899791,3.97143424 1.817119,4.39022338 L2.52693111,5.38750939 C2.33173278,5.76016075 2.17557411,6.14700835 2.05490605,6.54805219 L0.876617954,6.74679958 C0.369102296,6.83197704 -2.84217094e-14,7.26851148 -2.84217094e-14,7.78312526 L-2.84217094e-14,9.27727975 C-2.84217094e-14,9.79189353 0.369102296,10.228428 0.876617954,10.3136054 L2.08329854,10.5194509 C2.20751566,10.9169457 2.37077244,11.3037933 2.56951983,11.6728956 L1.87035491,12.6453382 C1.57223382,13.0641273 1.61837161,13.6355261 1.98392484,13.9975303 L3.04154489,15.0551503 C3.24029228,15.2538977 3.50292276,15.3639186 3.78329854,15.3639186 C4.00334029,15.3639186 4.21273486,15.2964864 4.39018789,15.1687203 L5.3874739,14.4589081 C5.74592902,14.6470084 6.12212944,14.799618 6.50897704,14.920286 L6.70772443,16.1127704 C6.79290188,16.620286 7.22943633,16.9893883 7.7440501,16.9893883 L9.24175365,16.9893883 C9.75636743,16.9893883 10.1929019,16.620286 10.2780793,16.1127704 L10.4803758,14.920286 C10.8814196,14.7960689 11.2682672,14.6363612 11.6373695,14.4411628 L12.6204593,15.1438768 C12.7979123,15.271643 13.0108559,15.3390752 13.2308977,15.3390752 L13.2308977,15.3390752 C13.5112735,15.3390752 13.773904,15.2290543 13.9726514,15.0303069 L15.0302714,13.9726868 C15.3922756,13.6106827 15.4419624,13.0392839 15.1438413,12.6204948 L14.4411273,11.6338559 C14.6363257,11.2612046 14.7995825,10.874357 14.9202505,10.4768622 L16.1127349,10.2781148 C16.6202505,10.1929374 16.9893528,9.75640292 16.9893528,9.24178914 L16.9893528,7.74763466 C16.9964509,7.23302088 16.6273486,6.79648643 16.119833,6.71130898 Z M16.0382046,9.24178914 C16.0382046,9.28792693 16.006263,9.3269666 15.9601253,9.33406472 L14.4695198,9.58249896 C14.2814196,9.6144405 14.1323591,9.75285386 14.0862213,9.93385595 C13.951357,10.4555678 13.7455115,10.9559854 13.4686848,11.4209123 C13.3728601,11.5841691 13.3799582,11.7864656 13.4899791,11.9426242 L14.3665971,13.1776973 C14.3914405,13.2131879 14.3878914,13.2664238 14.3559499,13.2983653 L13.2983299,14.3559854 C13.2734864,14.3808288 13.248643,14.3843779 13.2308977,14.3843779 C13.2096033,14.3843779 13.191858,14.3772797 13.1776618,14.3666326 L11.9461378,13.4900146 C11.7935282,13.3799937 11.5876827,13.3728956 11.4244259,13.4687203 C10.959499,13.745547 10.4590814,13.9513925 9.93736952,14.0862568 C9.75281837,14.1323946 9.61440501,14.2850042 9.58601253,14.4695553 L9.33402923,15.9601608 C9.32693111,16.0062985 9.28789144,16.0382401 9.24175365,16.0382401 L7.74759916,16.0382401 C7.70146138,16.0382401 7.66242171,16.0062985 7.65532359,15.9601608 L7.40688935,14.4695553 C7.37494781,14.2814551 7.23653445,14.1323946 7.05553236,14.0862568 C6.5480167,13.9549415 6.05824635,13.7526451 5.60041754,13.4900146 C5.52588727,13.4474259 5.44070981,13.4261315 5.35908142,13.4261315 C5.26325678,13.4261315 5.16388309,13.454524 5.0822547,13.514858 L3.84008351,14.3985741 C3.8223382,14.4092213 3.8045929,14.4163194 3.7868476,14.4163194 C3.77265136,14.4163194 3.74425887,14.4127704 3.71941545,14.3879269 L2.66179541,13.3303069 C2.62985386,13.2983653 2.6263048,13.2486785 2.65114823,13.2096388 L3.52421712,11.9852129 C3.634238,11.8290543 3.64133612,11.6232088 3.54551148,11.459952 C3.26868476,10.9985741 3.05574113,10.4981566 2.92087683,9.97644468 C2.87118998,9.79544259 2.72212944,9.65702923 2.53757829,9.62508768 L1.03632568,9.36955532 C0.990187891,9.3624572 0.958246347,9.32341754 0.958246347,9.27727975 L0.958246347,7.78312526 C0.958246347,7.73698747 0.990187891,7.69794781 1.03632568,7.69084969 L2.51628392,7.44241545 C2.70438413,7.4104739 2.85699374,7.27206054 2.90313152,7.08750939 C3.03444676,6.56579749 3.23674322,6.0618309 3.51002088,5.59690397 C3.60584551,5.43364718 3.59519833,5.23135073 3.48517745,5.07874113 L2.60146138,3.83656994 C2.57661795,3.80107933 2.58016701,3.74784342 2.61210856,3.71590188 L3.6697286,2.65828184 C3.69457203,2.63343841 3.71941545,2.62988935 3.73716075,2.62988935 C3.75845511,2.62988935 3.77620042,2.63698747 3.79039666,2.64763466 L5.01482255,3.52070355 C5.17098121,3.63072443 5.37682672,3.63782255 5.54008351,3.54199791 C6.00146138,3.26517119 6.50187891,3.05222756 7.02359081,2.91736326 C7.2045929,2.86767641 7.34300626,2.71861587 7.37494781,2.53406472 L7.63048017,1.03281211 C7.63757829,0.986674322 7.67661795,0.954732777 7.72275574,0.954732777 L9.21691023,0.954732777 C9.26304802,0.954732777 9.30208768,0.986674322 9.3091858,1.03281211 L9.55762004,2.51277035 C9.58956159,2.70087056 9.72797495,2.85348017 9.9125261,2.89961795 C10.4484342,3.03448225 10.959499,3.24387683 11.4350731,3.52425261 C11.5983299,3.62007724 11.8006263,3.61297912 11.956785,3.50295825 L13.1812109,2.62279123 C13.1989562,2.61214405 13.2167015,2.60504593 13.2344468,2.60504593 C13.248643,2.60504593 13.2770355,2.60859499 13.3018789,2.63343841 L14.359499,3.69105846 C14.3914405,3.723 14.3949896,3.77268685 14.3701461,3.81172651 L13.4935282,5.04325052 C13.3835073,5.19586013 13.3764092,5.40170564 13.4722338,5.56496242 C13.7490605,6.02988935 13.9549061,6.53030689 14.0897704,7.05201879 C14.1359081,7.23656994 14.2885177,7.3749833 14.4730689,7.40337578 L15.9636743,7.65535908 C16.0098121,7.6624572 16.0417537,7.70149687 16.0417537,7.74763466 L16.0417537,9.24178914 L16.0382046,9.24178914 L16.0382046,9.24178914 Z" id="Shape"></path>
                <path d="M8.49645094,4.82675783 C6.47348643,4.82675783 4.8302714,6.46997286 4.8302714,8.49293737 C4.8302714,10.5159019 6.47348643,12.1591169 8.49645094,12.1591169 C10.5194154,12.1591169 12.1626305,10.5159019 12.1626305,8.49293737 C12.1626305,6.46997286 10.5194154,4.82675783 8.49645094,4.82675783 Z M8.49645094,11.2008706 C7.00229645,11.2008706 5.78851775,9.98709186 5.78851775,8.49293737 C5.78851775,6.99878288 7.00229645,5.78500418 8.49645094,5.78500418 C9.99060543,5.78500418 11.2043841,6.99878288 11.2043841,8.49293737 C11.2043841,9.98709186 9.99060543,11.2008706 8.49645094,11.2008706 Z" id="Shape"></path>
            </g>
        </g>
    </g>
</svg>