<?xml version="1.0" encoding="UTF-8"?>
<svg width="13px" height="13px" viewBox="0 0 13 13" version="1.1" xmlns="http://www.w3.org/2000/svg" xmlns:xlink="http://www.w3.org/1999/xlink">
    <!-- Generator: Sketch 44.1 (41455) - http://www.bohemiancoding.com/sketch -->
    <title>settings (1)</title>
    <desc>Created with Sketch.</desc>
    <defs></defs>
    <g id="Page-1" stroke="none" stroke-width="1" fill="none" fill-rule="evenodd">
        <g id="Settings" transform="translate(-1219.000000, -65.000000)" fill-rule="nonzero" fill="#000000">
            <g id="settings-(1)" transform="translate(1219.000000, 65.000000)">
                <path d="M12.3269311,5.13217745 L11.4150313,4.97748017 C11.3200418,4.67079958 11.1979123,4.37497495 11.048643,4.09272025 L11.5860125,3.34094572 C11.8139875,3.0206952 11.7787056,2.58374322 11.4991649,2.30691649 L10.6903967,1.49814823 C10.5384134,1.34616493 10.3375783,1.26203132 10.1231733,1.26203132 C9.95490605,1.26203132 9.79478079,1.31359708 9.65908142,1.41130063 L8.9045929,1.94867015 C8.61148225,1.79397286 8.30480167,1.66641545 7.98726514,1.57142589 L7.83528184,0.670382046 C7.77014614,0.282281837 7.43632568,2.71398747e-05 7.04279749,2.71398747e-05 L5.90020877,2.71398747e-05 C5.50668058,2.71398747e-05 5.17286013,0.282281837 5.10772443,0.670382046 L4.95031315,1.59313779 C4.64634656,1.68812735 4.35052192,1.81297077 4.06826722,1.96495407 L3.32192067,1.42758455 C3.18622129,1.329881 3.02338205,1.27831524 2.85511482,1.27831524 C2.64070981,1.27831524 2.43716075,1.36244885 2.28789144,1.51443215 L1.47640919,2.32320042 C1.19958246,2.60002714 1.16158664,3.03697912 1.38956159,3.35722965 L1.93235908,4.11986013 C1.78308977,4.40482881 1.66367432,4.70065344 1.57139875,5.00733403 L0.670354906,5.15931733 C0.282254697,5.22445303 -2.84217094e-14,5.55827349 -2.84217094e-14,5.95180167 L-2.84217094e-14,7.0943904 C-2.84217094e-14,7.48791858 0.282254697,7.82173904 0.670354906,7.88687474 L1.59311065,8.04428601 C1.68810021,8.34825261 1.81294363,8.64407724 1.96492693,8.92633194 L1.4302714,9.66996451 C1.20229645,9.99021503 1.23757829,10.427167 1.517119,10.7039937 L2.32588727,11.512762 C2.47787056,11.6647453 2.67870564,11.7488789 2.89311065,11.7488789 C3.06137787,11.7488789 3.22150313,11.6973132 3.35720251,11.5996096 L4.11983299,11.0568121 C4.39394572,11.2006534 4.68162839,11.3173549 4.97745303,11.4096305 L5.12943633,12.3215303 C5.19457203,12.7096305 5.52839248,12.9918852 5.92192067,12.9918852 L7.06722338,12.9918852 C7.46075157,12.9918852 7.79457203,12.7096305 7.85970772,12.3215303 L8.01440501,11.4096305 C8.32108559,11.3146409 8.61691023,11.1925115 8.89916493,11.0432422 L9.65093946,11.5806117 C9.78663883,11.6783152 9.94947808,11.729881 10.1177453,11.729881 L10.1177453,11.729881 C10.3321503,11.729881 10.5329854,11.6457474 10.6849687,11.4937641 L11.493737,10.6849958 C11.7705637,10.4081691 11.8085595,9.97121712 11.5805846,9.6509666 L11.043215,8.89647808 C11.1924843,8.61150939 11.3173278,8.31568476 11.4096033,8.01171816 L12.3215031,7.85973486 C12.7096033,7.79459916 12.991858,7.46077871 12.991858,7.06725052 L12.991858,5.9246618 C12.997286,5.53113361 12.7150313,5.19731315 12.3269311,5.13217745 Z M12.2645094,7.06725052 C12.2645094,7.10253236 12.2400835,7.13238622 12.2048017,7.1378142 L11.0649269,7.32779332 C10.9210856,7.35221921 10.8070981,7.45806472 10.7718163,7.59647808 C10.6686848,7.99543424 10.5112735,8.37810647 10.2995825,8.73363883 C10.2263048,8.85848225 10.2317328,9.01317954 10.3158664,9.13259499 L10.9862213,10.0770626 C11.0052192,10.1042025 11.0025052,10.1449123 10.9780793,10.1693382 L10.1693111,10.9781065 C10.1503132,10.9971044 10.1313152,10.9998184 10.1177453,10.9998184 C10.1014614,10.9998184 10.0878914,10.9943904 10.0770355,10.9862484 L9.13528184,10.3158935 C9.01858038,10.2317599 8.8611691,10.2263319 8.73632568,10.2996096 C8.38079332,10.5113006 7.99812109,10.6687119 7.59916493,10.7718434 C7.45803758,10.8071253 7.35219207,10.9238267 7.33048017,11.0649541 L7.13778706,12.2048288 C7.13235908,12.2401106 7.10250522,12.2645365 7.06722338,12.2645365 L5.92463466,12.2645365 C5.88935282,12.2645365 5.85949896,12.2401106 5.85407098,12.2048288 L5.66409186,11.0649541 C5.63966597,10.9211127 5.53382046,10.8071253 5.3954071,10.7718434 C5.00730689,10.6714259 4.63277662,10.5167286 4.28267223,10.3158935 C4.2256785,10.2833257 4.1605428,10.2670418 4.09812109,10.2670418 C4.02484342,10.2670418 3.94885177,10.2887537 3.88643006,10.3348914 L2.93653445,11.0106743 C2.92296451,11.0188163 2.90939457,11.0242443 2.89582463,11.0242443 C2.88496868,11.0242443 2.86325678,11.0215303 2.84425887,11.0025324 L2.03549061,10.1937641 C2.01106472,10.1693382 2.00835073,10.1313424 2.02734864,10.1014885 L2.69498956,9.16516284 C2.77912317,9.04574739 2.78455115,8.88833612 2.71127349,8.76349269 C2.49958246,8.41067432 2.33674322,8.02800209 2.23361169,7.62904593 C2.19561587,7.49063257 2.08162839,7.38478706 1.94050104,7.36036117 L0.792484342,7.16495407 C0.757202505,7.1595261 0.732776618,7.12967223 0.732776618,7.0943904 L0.732776618,5.95180167 C0.732776618,5.91651983 0.757202505,5.88666597 0.792484342,5.881238 L1.92421712,5.69125887 C2.06805846,5.66683299 2.18475992,5.56098747 2.22004175,5.41986013 C2.32045929,5.02090397 2.47515658,4.63551775 2.68413361,4.27998539 C2.75741127,4.15514196 2.74926931,4.00044468 2.6651357,3.88374322 L1.98935282,2.9338476 C1.97035491,2.90670772 1.97306889,2.86599791 1.99749478,2.84157203 L2.80626305,2.03280376 C2.82526096,2.01380585 2.84425887,2.01109186 2.85782881,2.01109186 C2.87411273,2.01109186 2.88768267,2.01651983 2.89853862,2.0246618 L3.8348643,2.69230271 C3.95427975,2.77643633 4.11169102,2.7818643 4.23653445,2.70858664 C4.58935282,2.49689562 4.97202505,2.33405637 5.37098121,2.23092484 C5.50939457,2.19292902 5.61524008,2.07894154 5.63966597,1.9378142 L5.83507307,0.789797495 C5.84050104,0.754515658 5.87035491,0.73008977 5.90563674,0.73008977 L7.04822547,0.73008977 C7.08350731,0.73008977 7.11336117,0.754515658 7.11878914,0.789797495 L7.30876827,1.92153027 C7.33319415,2.06537161 7.43903967,2.18207307 7.58016701,2.21735491 C7.98997912,2.32048643 8.38079332,2.48061169 8.74446764,2.6950167 C8.86931106,2.76829436 9.02400835,2.76286639 9.1434238,2.67873278 L10.0797495,2.00566388 C10.0933194,1.99752192 10.1068894,1.99209395 10.1204593,1.99209395 C10.1313152,1.99209395 10.1530271,1.99480793 10.1720251,2.01380585 L10.9807933,2.82257411 C11.0052192,2.847 11.0079332,2.88499582 10.9889353,2.91484969 L10.3185804,3.85660334 C10.2344468,3.9733048 10.2290188,4.13071608 10.3022965,4.2555595 C10.5139875,4.61109186 10.6713987,4.99376409 10.7745303,5.39272025 C10.8098121,5.5338476 10.9265136,5.63969311 11.0676409,5.66140501 L12.2075157,5.85409812 C12.2427975,5.8595261 12.2672234,5.88937996 12.2672234,5.9246618 L12.2672234,7.06725052 L12.2645094,7.06725052 L12.2645094,7.06725052 Z" id="Shape"></path>
                <path d="M6.49728601,3.6910501 C4.95031315,3.6910501 3.69373695,4.9476263 3.69373695,6.49459916 C3.69373695,8.04157203 4.95031315,9.29814823 6.49728601,9.29814823 C8.04425887,9.29814823 9.30083507,8.04157203 9.30083507,6.49459916 C9.30083507,4.9476263 8.04425887,3.6910501 6.49728601,3.6910501 Z M6.49728601,8.56537161 C5.35469729,8.56537161 4.42651357,7.63718789 4.42651357,6.49459916 C4.42651357,5.35201044 5.35469729,4.42382672 6.49728601,4.42382672 C7.63987474,4.42382672 8.56805846,5.35201044 8.56805846,6.49459916 C8.56805846,7.63718789 7.63987474,8.56537161 6.49728601,8.56537161 Z" id="Shape"></path>
            </g>
        </g>
    </g>
</svg>