<?xml version="1.0" encoding="UTF-8"?>
<svg width="16px" height="19px" viewBox="0 0 16 19" version="1.1" xmlns="http://www.w3.org/2000/svg" xmlns:xlink="http://www.w3.org/1999/xlink">
    <!-- Generator: Sketch 44.1 (41455) - http://www.bohemiancoding.com/sketch -->
    <title>Shape</title>
    <desc>Created with Sketch.</desc>
    <defs></defs>
    <g id="Page-1" stroke="none" stroke-width="1" fill="none" fill-rule="evenodd">
        <g id="Add-users" transform="translate(-1075.000000, -31.000000)" fill-rule="nonzero" fill="#666565">
            <g id="Group-2" transform="translate(1075.000000, 26.000000)">
                <g id="notifications-bell-button" transform="translate(0.000000, 5.714286)">
                    <path d="M7.99078341,18.2857143 C9.02488479,18.2857143 9.87096774,17.4628571 9.87096774,16.4571429 L6.11059908,16.4571429 C6.11059908,17.4628571 6.95668203,18.2857143 7.99078341,18.2857143 Z M14.1013825,12.8 L14.1013825,7.77142857 C14.1013825,4.93714286 12.1271889,2.65142857 9.40092166,2.01142857 L9.40092166,1.37142857 C9.40092166,0.64 8.74285714,0 7.99078341,0 C7.23870968,0 6.58064516,0.64 6.58064516,1.37142857 L6.58064516,2.01142857 C3.85437788,2.65142857 1.88018433,4.93714286 1.88018433,7.77142857 L1.88018433,12.8 L0,14.6285714 L0,15.5428571 L15.9815668,15.5428571 L15.9815668,14.6285714 L14.1013825,12.8 Z M12.2211982,13.7142857 L3.76036866,13.7142857 L3.76036866,7.77142857 C3.76036866,5.48571429 5.640553,3.65714286 7.99078341,3.65714286 C10.3410138,3.65714286 12.2211982,5.48571429 12.2211982,7.77142857 L12.2211982,13.7142857 Z" id="Shape"></path>
                </g>
            </g>
        </g>
    </g>
</svg>