<?xml version="1.0" encoding="UTF-8"?>
<svg width="14px" height="16px" viewBox="0 0 14 16" version="1.1" xmlns="http://www.w3.org/2000/svg" xmlns:xlink="http://www.w3.org/1999/xlink">
    <!-- Generator: Sketch 44.1 (41455) - http://www.bohemiancoding.com/sketch -->
    <title>telemarketer</title>
    <desc>Created with Sketch.</desc>
    <defs></defs>
    <g id="Page-1" stroke="none" stroke-width="1" fill="none" fill-rule="evenodd">
        <g id="Settings" transform="translate(-1218.000000, -87.000000)" fill-rule="nonzero" fill="#000000">
            <g id="telemarketer" transform="translate(1218.000000, 87.000000)">
                <path d="M11.4616364,12.370125 C11.0491818,12.184 10.5811515,11.9735937 10.0487273,11.722125 L10.0246667,11.7109375 L10.0057879,11.729875 C9.82763636,11.9082812 9.63033333,12.0770625 9.41878788,12.23175 L9.36448485,12.2712187 L9.42472727,12.3002812 C10.0934242,12.6208125 10.6726667,12.8834687 11.162697,13.1045625 C12.9808182,13.9226875 13.2104545,14.0824375 13.2104545,14.5282812 C13.2104545,14.8344062 12.9177273,15.2045625 12.5546667,15.2045625 L1.44506061,15.2045625 C1.082,15.2045625 0.789272727,14.8344375 0.789272727,14.5282812 C0.789272727,14.0824062 1.01915152,13.9226875 2.8370303,13.1045625 C3.32706061,12.8835 3.90654545,12.6208437 4.575,12.3002812 L4.63524242,12.2712187 L4.58093939,12.23175 C4.36966667,12.0770937 4.17212121,11.9080313 3.99393939,11.729875 L3.97506061,11.7109375 L3.951,11.722125 C3.41830303,11.9733125 2.95051515,12.184 2.53809091,12.370125 C0.704212121,13.1957187 0.0181818182,13.5048125 0.0181818182,14.5285312 C0.0181818182,15.2986562 0.698272727,16 1.44506061,16 L12.5549394,16 C13.3017273,16 13.9818182,15.2986562 13.9818182,14.5285312 C13.9818182,13.5048125 13.2957879,13.1957187 11.4616364,12.370125 Z" id="Shape"></path>
                <path d="M12.430303,4.8 L11.6545455,4.8 C11.6545455,2.1490625 9.57060606,0 7,0 C4.42939394,0 2.34545455,2.1490625 2.34545455,4.8 L1.56969697,4.8 C1.14121212,4.8 0.793939394,5.158125 0.793939394,5.6 L0.793939394,8 C0.793939394,8.441875 1.14121212,8.8 1.56969697,8.8 L2.34545455,8.8 C2.57454545,8.8 2.7749697,8.6930625 2.91718182,8.53040625 C2.94072727,8.5648125 2.96166667,8.59975 2.98957576,8.6330625 C3.52666667,10.8253437 5.12112121,12.41975 7,12.41975 C8.92439394,12.41975 10.5470303,10.745625 11.0442727,8.47121875 C11.1857273,8.665875 11.4006061,8.80003125 11.6545455,8.80003125 L12.430303,8.80003125 C12.8587879,8.80003125 13.2060606,8.44190625 13.2060606,8.00003125 L13.2060606,5.60003125 C13.2060606,5.158125 12.8587879,4.8 12.430303,4.8 Z M2.34545455,8 L1.56969697,8 L1.56969697,5.6 L2.34545455,5.6 L2.34545455,8 Z M7,11.6245313 C5.74509091,11.6245313 4.64815152,10.7117187 4.04927273,9.3570625 C4.96854545,9.76959375 6.17354545,10 7,10 C7.21436364,10 7.38787879,9.8210625 7.38787879,9.6 C7.38787879,9.3789375 7.21436364,9.2 7,9.2 C5.63621212,9.2 4.18193939,8.637875 3.69372727,8.2368125 C3.61330303,7.84534375 3.56675758,7.43521875 3.56675758,7.009875 C3.56675758,4.46534375 5.10715152,2.39521875 7,2.39521875 C8.89284848,2.39521875 10.4332424,4.46534375 10.4332424,7.009875 C10.4332424,9.55440625 8.89284848,11.6245313 7,11.6245313 Z M10.8694848,4.89546875 C10.2281818,2.96028125 8.73536364,1.6 7,1.6 C5.26463636,1.6 3.77181818,2.96028125 3.13051515,4.89546875 C3.12972727,4.8629375 3.12121212,4.83253125 3.12121212,4.8 C3.12121212,2.59440625 4.86124242,0.8 7,0.8 C9.13875758,0.8 10.8787879,2.59440625 10.8787879,4.8 C10.8787879,4.83253125 10.8702424,4.8629375 10.8694848,4.89546875 Z M12.430303,8 L11.6545455,8 L11.6545455,5.6 L12.430303,5.6 L12.430303,8 Z" id="Shape"></path>
            </g>
        </g>
    </g>
</svg>