<?xml version="1.0" encoding="UTF-8"?>
<svg width="14px" height="15px" viewBox="0 0 14 15" version="1.1" xmlns="http://www.w3.org/2000/svg" xmlns:xlink="http://www.w3.org/1999/xlink">
    <!-- Generator: Sketch 44.1 (41455) - http://www.bohemiancoding.com/sketch -->
    <title>turn-off</title>
    <desc>Created with Sketch.</desc>
    <defs></defs>
    <g id="Page-1" stroke="none" stroke-width="1" fill="none" fill-rule="evenodd">
        <g id="Settings" transform="translate(-1219.000000, -116.000000)" fill-rule="nonzero" fill="#000000">
            <g id="turn-off" transform="translate(1219.000000, 116.000000)">
                <path d="M9.79553191,1.82214844 C9.47391915,1.68395508 9.09931489,1.82835938 8.95880851,2.14467773 C8.81830213,2.46099609 8.9651234,2.82943359 9.28673617,2.96762695 C11.3543277,3.85602539 12.7190596,5.86734375 12.7190596,8.12490234 C12.7190596,11.2313672 10.1581915,13.7499023 6.99991064,13.7499023 C3.84121277,13.7499023 1.2807617,11.2316016 1.2807617,8.12490234 C1.2807617,5.8678418 2.64501702,3.85652344 4.71201277,2.96753906 C5.03356596,2.82925781 5.18026809,2.46076172 5.03964255,2.14450195 C4.89904681,1.82824219 4.52438298,1.68395508 4.20282979,1.82226562 C1.6772,2.90844727 0.00985957447,5.36663086 0.00985957447,8.12487305 C0.00985957447,11.9219238 3.13933617,14.9998828 6.99994043,14.9998828 C10.8601277,14.9998828 13.9900213,11.9217188 13.9900213,8.12487305 C13.9900213,5.36598633 12.3219957,2.90768555 9.79553191,1.82214844 Z" id="Shape"></path>
                <path d="M6.99967234,6.87500977 C7.35062553,6.87500977 7.6351234,6.59519531 7.6351234,6.25001953 L7.6351234,0.625019531 C7.63515319,0.279814453 7.35062553,0 6.99967234,0 C6.64871915,0 6.36422128,0.279814453 6.36422128,0.624990234 L6.36422128,6.24999023 C6.36422128,6.59516602 6.64871915,6.87500977 6.99967234,6.87500977 Z" id="Shape"></path>
            </g>
        </g>
    </g>
</svg>